ply
format ascii 1.0
comment Generated by PyMesh
element vertex 374
property float x
property float y
property float z
property float charge
property float hbond
property float hphob
property float nx
property float ny
property float nz
property float si
element face 680
property list uchar int vertex_indices
end_header
14.9725 -26.2605 -8.0245 0.0338617 -0.00498286 2.73148 -0.783002 0.562023 0.266532 -0.586253
9.747 -16.437 -11.134 -3.18716 0 1.9 0.257509 0.860978 -0.438641 -0.405612
6.7035 -13.8525 -10.8245 -3.38475 0 1.80253 0.368559 0.923301 0.108075 -0.710216
11.7955 -13.3215 -18.667 -0.492996 0 2.93283 -0.83701 -0.288878 0.464719 0.999841
13.065 -15.217 -11.634 -0.473919 0 1.9 -0.944332 0.101653 -0.312897 0.927423
6.14 -9.6285 -2.0125 -1.1216 0 1.8 -0.812459 -0.241701 -0.530557 -0.999936
15.531 -20.717 -2.868 -0.660755 0 -1.3 -0.99995 0.00744783 -0.00666383 0.162993
11.736 -15.165 -5.538 -0.498686 0 -1.6 -0.496439 -0.851339 0.169614 0.480442
14.899 -17.2455 -7.005 -0.574613 0 -1.3 -0.237362 -0.617755 0.749692 0.999889
10.743 -11.51 -18.801 -0.894467 -0 -3.5 -0.6793 -0.379971 0.627832 0.999958
6.1615 -20.242 -9.0295 -3.21067 0 2.00364 -0.572663 -0.706526 0.415785 0.0597909
13.639 -18.34 -0.892 -0.337909 0 -3.5 -0.821041 -0.388089 -0.418663 -0.999925
15.666 -17.5025 -4.2685 -0.223949 0 -1.3 -0.829291 -0.542764 -0.13298 0.450189
15.418 -19.376 -17.924 -1.58876 -0.517946 -3.5 0.0300318 -0.635625 -0.771414 0.999965
15.0855 -13.936 -14.721 -1.07496 0 -3.5 -0.68393 0.708807 0.172722 0.394292
12.2855 -12.3725 -11.1785 -1.61384 -0.34792 -3.02857 -0.355338 0.129206 -0.925765 -0.780181
9.336 -19.1105 -12.4452 -2.80016 0 2.8 0.328791 0.0439961 -0.943377 0.446439
15.3765 -20.3808 -15.8182 -1.76052 0 -3.5 -0.602436 -0.78882 -0.121797 -0.507445
7.035 -19.9225 -6.735 -2.47802 0 2.37836 -0.534721 -0.198615 0.821356 -0.999901
8.08975 -15.8853 -12.2895 -4.13029 0 1.9 0.833569 0.499618 -0.235678 0.260622
13.1053 -14.6868 -3.83075 -0.157741 0 -0.4 -0.459769 -0.503126 0.731763 0.630296
15.6195 -24.403 -13.928 -1.19415 -0.130337 -3.5 -0.508788 0.835285 -0.20841 0.437342
8.185 -10.403 -3.404 -0.939992 0 -0.4 -0.583054 0.0333635 -0.811748 0.88732
12.103 -17.8245 -15.8255 -1.43086 0 3.67382 -0.971089 0.177853 -0.159234 -0.999891
13.959 -16.6285 -5.545 -0.326564 0 -1.321 -0.344334 -0.90269 0.258042 0.0328093
4.069 -23.2952 -10.7257 -3.016 0.531715 4.40528 0.371981 -0.72941 0.5741 -0.140271
8.32275 -8.294 -5.76825 -0.66389 0 -0.41068 -0.79395 -0.245642 -0.556151 -0.670665
12.158 -21.1595 -8.6945 -1.53777 0 2.14046 0.158172 -0.979879 0.12173 -0.721095
9.0535 -12.266 -5.703 -0.446809 0.0254565 2.1279 -0.996475 -0.0202087 -0.0814194 -0.670711
4.9715 -25.6665 -13.4458 -3.76632 -0.589799 4.5 0.449333 -0.891233 0.0616777 -0.999887
9.21775 -10.2917 -7.40425 -0.919661 0 1.174 -0.991201 -0.0870658 -0.0997015 -0.35494
10.3065 -17.564 -7.467 -1.75525 0 -1.50186 -0.571333 0.52164 0.633617 -0.0827993
13.968 -26.579 -11.352 -0.921856 -0 1.8 -0.926713 -0.346751 0.144799 -0.892951
1.346 -20.9792 -11.1005 -3.43214 0 -3.5 -0.805049 0.591144 -0.0494481 -0.330929
12.998 -14.767 -14.239 -1.25212 0 3.8 -0.71718 0.615876 -0.326113 -0.999905
16.79 -23.978 -5.4425 -0.94972 -0.0698624 -0.155513 -0.873541 -0.391084 -0.289792 0.99992
7.566 -15.0425 -12.7285 -4.28271 0 1.23469 0.741924 0.565601 -0.360062 -0.620439
11.1905 -20.958 -10.69 -2.12005 0 2.8 -0.130941 -0.971568 -0.197255 0.0762965
15.561 -25.2013 -9.28825 -0.597323 0 2.8 -0.880449 0.241509 0.408024 0.56659
10.766 -8.99875 -9.24075 -0.317268 0 -3.9 -0.308864 0.534536 -0.786685 -0.620557
12.1093 -10.7175 -10.0872 0.250378 0.856577 -3.5 -0.483855 0.448816 -0.751297 0.696534
12.2655 -18.8983 -15.9765 -1.5341 0 -0.279969 -0.779595 -0.537675 -0.321148 -0.999896
13.3454 -17.2048 -17.8076 -0.667122 0 3.8 -0.980922 -0.109555 -0.160592 0.211595
14.922 -19.667 -16.644 -1.00798 0 -3.5 -0.531314 -0.823455 -0.199067 0.524523
6.4995 -21.3978 -15.1222 -3.92269 -0.204196 -1.08934 0.78648 -0.396904 -0.473199 -0.999852
8.8 -14.9327 -1.80825 -1.54283 0 -1.6 0.443529 -0.886927 0.129006 -0.999923
14.38 -18.185 -7.56375 -2.2951 -0.783145 -1.3 0.0136246 -0.24373 0.969747 0.999868
12.138 -18.5755 -12.2135 -1.28912 0 2.8 -0.558225 0.176931 -0.810605 0.691502
15.7952 -20.3797 -17.0823 -1.31373 -0.204941 -3.5 -0.479323 -0.807433 -0.343951 -0.999942
9.345 -10.1702 -5.159 -0.705347 0 -0.4 -0.92588 -0.233361 -0.297135 0.746998
6.663 -11.78 -0.719 -1.0548 0 1.8 -0.941018 0.0219483 0.337643 -0.99995
6.9515 -18.801 -7.1185 -2.60617 0 3.92483 -0.490954 0.325813 0.807966 -0.513784
15.778 -19.6877 -3.21275 -0.727462 0 -1.3 -0.964793 0.108173 -0.239736 0.508495
6.015 -19.2315 -8.5855 -3.775 0 1.9 -0.610097 -0.357262 0.70721 0.250168
8.14475 -11.5828 -3.92475 -0.470654 0 -0.4 -0.584101 0.0967686 -0.805892 -0.269787
2.3935 -17.2708 -10.4834 -1.93122 0.372827 1.9 -0.907365 0.166604 0.385916 -0.574543
15.7625 -13.4663 -11.962 -1.89748 -0.56354 -3.5 -0.556679 0.437471 -0.706206 0.999913
6.7505 -9.028 -2.836 -2.01122 -0.601754 -0.8 -0.642868 -0.128576 -0.755109 -0.999926
12.0555 -13.971 -19.4755 -0.471394 0 1.80406 -0.916199 -0.40042 0.0156025 -0.999925
5.80725 -15.1567 -8.76 -3.74963 -0.214925 0.529687 -0.015069 0.558269 0.829523 -0.681872
10.953 -12.4435 -19.1388 -0.557959 0 1.8 -0.69394 -0.36521 0.620539 0.999916
12.5445 -15.0535 -19.5165 -0.259109 0 2.81719 -0.922469 -0.379181 -0.0726106 0.999925
13.8702 -13.0767 -3.20825 -0.487942 0 -0.4 -0.200398 -0.0157551 0.979588 0.999899
6.30025 -20.4993 -10.173 -2.86206 0 2.8 -0.112606 -0.96475 0.237858 0.484722
12.8309 -11.3825 -11.1027 -1.09117 -0.318341 -3.5 -0.454994 0.292369 -0.841131 -0.166346
14.5015 -25.6665 -14.6335 -0.860027 0 3.8 -0.95291 0.218883 -0.20989 -0.999907
12.7583 -16.3988 -12.0378 -0.800593 0 1.9 -0.905888 0.397883 -0.145107 0.555538
15.0455 -26.175 -9.16325 -0.700734 -0.382021 2.27845 -0.881999 0.441094 0.165875 0.281438
5.2485 -16.081 -8.348 -3.99559 -0.736499 -3.02489 -0.217516 0.326078 0.919978 -0.798196
14.7085 -27.191 -11.8955 -0.565073 0 -3.2 -0.800719 -0.597333 -0.0451964 0.999934
7.7675 -9.341 -3.50475 -1.43343 -0.641235 -0.690393 -0.575524 -0.216499 -0.788606 0.0753387
7.31575 -15.0022 -1.332 -1.2127 -0.0910629 4.5 -0.36296 -0.917959 0.160036 -0.999903
1.06025 -22.6475 -11.824 -3.29623 0 4.2 -0.92924 -0.266466 -0.255948 -0.566919
15.939 -23.234 -5.086 -0.738579 0 -0.4 -0.763781 -0.608627 -0.214969 -0.999847
16.6965 -22.54 -13.3337 -1.97192 -0.335211 -3.5 -0.757574 -0.277461 -0.590844 0.999829
1.24975 -21.6063 -12.0535 -3.41034 0 0.350032 -0.938545 0.182377 -0.29304 -0.32413
14.498 -27.7575 -9.7025 -1.64962 -0.0301449 1.8 -0.980196 0.146385 0.133367 0.999909
13.2347 -16.4172 -17.0863 -0.707238 0 3.8 -0.995602 -0.0258876 0.090041 0.0531588
10.6742 -21.1423 -8.11025 -1.57322 0 3.52119 0.0771863 -0.927993 0.364516 -0.3626
15.1637 -16.7237 -6.1715 -0.0837208 0.168238 -1.3 -0.381537 -0.881663 0.277668 0.999901
13.3422 -16.9762 -0.67775 -0.303514 0 -2.70477 -0.979513 0.0154558 -0.200787 -0.999933
14.0478 -27.491 -7.01 -0.29952 -0.0501987 -0.0320144 -0.538358 0.840618 -0.0594338 0.99993
10.808 -12.128 -10.0162 -0.336152 0 1.9 -0.739457 0.0767053 -0.66882 -0.546196
17.054 -22.4727 -14.3903 -2.33855 0 -3.5 -0.982565 -0.14994 -0.10993 0.767948
12.267 -12.058 -17.639 -0.493056 0 -3.5 -0.6976 -0.147957 0.701045 -0.9999
11.107 -16.9683 -6.92625 -1.21446 0 -0.612099 -0.649083 0.281652 0.706656 -0.433992
15.269 -13.2465 -15.4817 -0.892582 0 -3.5 -0.7869 0.44692 0.425501 0.999929
14.0562 -13.1318 -16.592 -0.610033 0 -3.5 -0.522489 0.327339 0.787308 0.999909
7.682 -8.169 -3.7775 -2.67129 -0.111427 -0.8 -0.796968 -0.316474 -0.514477 0.999937
14.7504 -19.869 -7.18162 -1.39793 -0.355999 -1.3 -0.499122 0.062429 0.86428 -0.0257282
10.7445 -14.0591 -4.11963 -1.51674 0 -1.6 -0.283388 -0.645887 0.708887 -0.695697
10.3216 -16.8323 -8.462 -1.73901 0 4.5 -0.676573 0.621615 0.394771 0.210034
2.04288 -17.6394 -12.4125 -3.37266 0 -3.5 -0.992677 0.106848 -0.0563511 -0.702324
3.8095 -18.8155 -9.20075 -3.32422 0 1.9 -0.377566 -0.311814 0.871903 -0.27742
9.44325 -9.94025 -6.32412 -0.68257 0 -0.4 -0.990721 -0.122355 -0.0591627 0.348066
2.698 -21.6164 -8.82263 -3.70029 -0.199775 1.81009 0.0360745 0.117571 0.992409 -0.999881
16.2472 -23.2778 -3.92375 -0.616833 0 -0.4 -0.584179 -0.785838 0.202964 -0.999942
6.445 -10.7662 -1.573 -0.940761 0 1.8 -0.978984 -0.071151 -0.191125 -0.999896
3.16687 -16.3018 -9.38425 -4.26724 -0.283261 -1.51128 -0.729871 0.308443 0.610042 -0.999822
13.5308 -12.626 -11.3842 -2.30134 -0.789927 -3.5 -0.324551 0.0503609 -0.944526 0.153137
9.65425 -21.3746 -10.1737 -2.18639 0 2.8 0.184616 -0.926946 -0.326633 -0.595238
5.89725 -20.774 -15.963 -3.79741 -0.165145 -2.14032 0.383762 -0.220425 -0.896738 -0.999841
12.0812 -14.5856 -4.24519 -0.0291435 0 -1.6 -0.314548 -0.608712 0.728374 0.165907
11.493 -11.9235 -3.02 -0.735749 0 -0.4 0.184654 -0.653947 0.73366 0.999913
1.82088 -23.5888 -11.927 -3.30892 0 4.2 -0.705951 -0.694911 0.136863 -0.115864
13.3468 -21.3318 -12.6155 -1.75766 0 2.8 -0.327549 -0.798235 -0.505503 -0.537583
4.14725 -16.71 -14.7098 -3.65424 -0.464628 -0.8 -0.0612114 0.460776 -0.885403 -0.529643
10.2694 -18.6733 -12.2479 -2.55075 0 2.8 0.158452 0.048713 -0.986164 0.126356
12.669 -12.115 -3.105 -0.613315 0 -0.4 -0.0664998 -0.325406 0.943233 0.999903
13.4959 -19.7385 -14.282 -1.50755 -0.409995 -3.5 -0.475864 -0.87277 -0.108747 0.0759831
12.0965 -14.0035 -17.902 -0.523975 0 3.8 -0.912269 -0.164915 0.374925 -0.509775
5.066 -23.111 -15.32 -6.34244 -0.444576 -3.5 0.398737 -0.413525 -0.818539 -0.69098
10.7148 -13.3681 -9.571 -0.540304 0 1.9 -0.806021 -0.269758 -0.526841 0.0470048
6.42987 -12.743 -1.30613 -0.989561 0 1.8 -0.99264 -0.00306223 0.121063 -0.51825
8.99362 -9.24187 -7.07088 -0.505059 0 -1.74447 -0.993165 0.111631 0.0340963 -0.999889
12.1169 -20.7191 -12.3036 -1.64143 0 2.8 -0.536916 -0.562274 -0.628943 -0.534627
9.0675 -16.2586 -9.56863 -2.54372 0 4.5 0.362991 0.803096 0.472519 -0.177563
11.8462 -8.08813 -8.63625 0.0331594 0 -3.9 -0.2653 0.7316 -0.627995 -0.999919
3.79163 -25.9135 -13.5066 -3.6834 0 1.8 -0.0221553 -0.986108 -0.164623 -0.757766
12.204 -17.3125 -6.43875 -1.08701 0 -1.6 -0.323055 -0.148135 0.934715 -0.223723
13.195 -14.3577 -16.5658 -0.6441 0 3.03932 -0.65244 0.101204 0.751052 -0.66753
2.018 -19.2675 -13.6757 -3.38159 0 1.8 -0.904913 0.109691 -0.411218 -0.489093
15.0192 -19.5788 -1.73625 -0.232592 0 -1.3 -0.86761 -0.162448 -0.469961 0.9999
10.1015 -20.8978 -11.2331 -2.34448 0 2.8 0.155502 -0.924693 -0.347508 0.055372
12.7093 -15.2505 -17.38 -0.598449 0 3.8 -0.844404 -0.308532 0.437939 -0.423207
14.0436 -26.1152 -12.5124 -0.667825 0 -3.2 -0.945931 -0.20218 -0.253651 -0.683637
11.1337 -15.1912 -8.32875 -0.961043 0 4.5 -0.991454 -0.130214 -0.0080116 0.152885
13.1265 -19.686 -15.5583 -1.34789 0 -3.5 -0.379186 -0.912957 -0.150756 -0.999853
15.858 -12.7448 -14.2695 -2.33445 -0.440293 -3.5 -0.852841 0.424215 0.304472 -0.999914
8.68125 -12.7615 -3.8605 -0.445169 0.757223 4.5 -0.169375 -0.424897 -0.889255 -0.270524
12.6088 -19.2437 -14.68 -1.32443 0 2.8 -0.835591 -0.504486 0.217442 -0.780827
4.50212 -14.7134 -13.1449 -3.70878 -0.444111 -3.95168 -0.284086 0.752097 -0.594681 -0.558662
15.986 -17.5138 -5.535 0.28833 0.295192 -1.3 -0.8868 -0.460871 -0.0344012 0.834246
12.6112 -16.2421 -13.3541 -0.986571 0 1.9 -0.961291 0.272761 0.0390029 -0.702265
8.86687 -16.0195 -10.7961 -3.3806 0 1.9 0.517617 0.824333 -0.229234 0.0824928
11.2299 -14.1431 -9.97475 -0.614464 0 1.9 -0.706656 -0.403717 -0.581077 -0.647061
9.629 -13.417 -6.855 -0.709942 0 4.5 -0.874667 -0.435768 -0.212283 -0.130671
9.3845 -8.346 -6.6945 -0.541409 0 -1.70466 -0.858512 0.235355 -0.455593 0.181797
14.2425 -20.974 -13.0571 -2.3051 -0.82143 -3.5 -0.175259 -0.610034 -0.77275 0.706385
5.1365 -19.2295 -9.195 -3.95586 0 1.9 -0.280871 -0.393838 0.875216 0.741983
14.805 -16.952 -4.62725 -0.0732949 0.36588 -1.3 -0.503979 -0.862428 -0.0471365 -0.131095
15.3435 -21.7801 -6.65737 -0.939969 -0.0263507 0.778453 -0.937288 -0.321309 0.135101 -0.0943387
13.4984 -15.2937 -15.0147 -0.953372 0 3.8 -0.74011 0.530809 -0.412891 0.185231
4.5625 -14.1295 -10.1761 -4.05316 0 -0.478138 -0.383117 0.854362 0.351122 -0.834521
2.73825 -23.7218 -10.622 -2.87913 0.572135 4.5 -0.0442449 -0.934136 0.354163 -0.246784
15.303 -23.7906 -9.40312 -0.58558 0 2.8 -0.943436 -0.0105466 0.331387 -0.765922
3.53825 -20.2027 -9.62463 -3.35194 0 1.9 -0.208589 0.1146 0.971266 0.0494343
9.5745 -13.6215 -4.4265 -0.806966 0.302199 1.12941 -0.724357 -0.508078 0.466007 -0.999852
5.27425 -14.3299 -9.465 -4.13348 -0.153029 -2.19109 -0.175751 0.79421 0.581672 -0.999818
13.1143 -16.2332 -18.3022 -0.504054 0 3.8 -0.914449 -0.397562 0.0756805 0.412428
8.6675 -18.1842 -12.6195 -2.93486 0 2.8 0.487709 0.0435385 -0.87192 0.489149
14.915 -21.506 -8.547 -0.933862 0 2.8 -0.616517 -0.727399 0.301326 0.5817
11.9005 -17.3765 -11.9113 -1.35937 0 2.32065 -0.519452 0.557755 -0.647363 0.141686
17.0378 -23.6562 -7.04975 -2.11814 -0.0170824 2.8 -0.951406 -0.229465 0.205358 0.999869
12.461 -17.3515 -12.8825 -1.08031 0 2.73615 -0.974708 0.0910293 -0.204101 0.0574209
7.8405 -14.07 -0.148 -0.840547 0 2.5 -0.0585256 -0.776681 0.62717 -0.999909
9.6455 -18.3905 -7.224 -2.06009 0 1.80563 -0.142629 0.561123 0.815351 -0.0256622
11.1388 -16.1213 -7.63763 -1.1414 0 4.5 -0.895009 0.252881 0.367438 0.254736
14.1729 -25.0557 -11.8009 -0.862431 0 2.8 -0.917343 0.377396 0.126706 -0.680878
5.08775 -20.7685 -9.70825 -3.42517 0 2.28158 0.188589 -0.501562 0.844316 -0.0673652
6.75925 -15.1468 -13.5107 -4.53731 0 -3.5 0.358994 0.624118 -0.693974 -0.615927
8.3775 -14.4987 -2.8615 -1.57268 -0.468823 1.65583 0.30812 -0.81154 -0.496453 -0.516366
8.0875 -17.9505 -7.41288 -2.40564 0 4.5 0.0943218 0.634822 0.76688 -0.377938
15.2448 -22.5566 -4.01713 -0.678876 0 -0.573744 -0.816422 -0.558151 0.148061 -0.703587
2.494 -24.3485 -14.7802 -3.43105 0 0.714533 -0.716356 -0.220041 -0.66213 -0.816585
4.10775 -22.8015 -15.5994 -4.99714 -0.55093 -3.00991 -0.122776 -0.242068 -0.96246 -0.608069
6.10038 -22.2926 -14.4091 -3.96854 -0.369761 -0.490065 0.879345 -0.425997 -0.212788 -0.161752
14.2647 -25.9993 -10.4301 -1.22942 -0.789321 1.8 -0.920868 0.118335 0.371482 -0.36628
9.584 -10.7126 -8.42775 -0.888638 -0.0701001 1.68023 -0.833115 -0.0214191 -0.552685 -0.345127
6.98425 -16.1466 -14.1719 -3.15576 -0.843951 -0.8 0.354499 0.242692 -0.903012 -0.999861
16.745 -21.3943 -15.5538 -1.20744 0 -3.5 -0.784407 -0.619863 -0.0218018 0.999856
10.6435 -21.0952 -9.842 -2.19191 0 2.8 0.167515 -0.977439 -0.128652 0.298437
16.8298 -23.6728 -13.7255 -2.22746 -0.232473 -3.5 -0.852458 0.49083 -0.180004 0.999892
6.7705 -11.7476 -2.68362 -1.05821 0 1.8 -0.928904 0.0731077 -0.363033 -0.406877
6.3675 -13.4004 -2.156 -1.59238 -0.12008 4.18126 -0.946681 -0.215336 -0.239635 -0.999865
13.8807 -17.109 -6.5485 -0.946964 0 -1.39857 0.141954 -0.71902 0.680337 0.269495
10.3835 -13.425 -1.8775 -1.25949 -0.710198 -1.51348 0.626477 -0.720115 -0.298261 -0.999885
11.2931 -13.1307 -10.5843 -0.428343 0 1.9 -0.658192 -0.147551 -0.738249 -0.863452
15.205 -18.95 -7.3775 -1.72662 -0.325856 -1.3 -0.572317 0.162797 0.80371 0.999889
4.60225 -25.2873 -14.4502 -3.78023 -0.0181927 -3.5 0.317573 -0.673311 -0.667682 -0.734128
7.45087 -20.3918 -12.8136 -2.96821 0 2.8 0.484327 -0.680081 -0.550379 0.0687506
11.2545 -20.5199 -11.7381 -1.97299 0 2.8 -0.221441 -0.760897 -0.609918 -0.0195915
7.18962 -15.4426 -9.092 -3.19553 0 4.5 0.436218 0.602367 0.668481 -0.383985
13.2939 -20.2949 -13.4194 -1.48956 -0.0421877 -3.5 -0.46098 -0.51262 -0.724374 -0.184366
13.6771 -15.7556 -16.3008 -0.73745 0 3.8 -0.92655 0.242906 0.287231 0.458953
4.76225 -24.8972 -11.8427 -3.32369 -0.215647 4.5 0.260441 -0.592493 0.762314 -0.811737
6.54325 -14.2725 -9.62925 -3.35561 0 3.80818 0.241285 0.811234 0.532618 -0.999802
13.669 -15.917 -1.095 0.00896453 0 -0.4 -0.840979 0.313183 -0.441215 0.999899
14.1805 -15.1573 -1.57325 0.424146 0 -0.4 -0.995506 -0.0810733 -0.0489368 0.999886
3.6705 -14.4845 -11.122 -3.93514 0.479688 -4.16772 -0.726445 0.686858 0.0224211 -0.63645
10.0068 -12.8615 -3.58675 -0.860734 0.051828 -0.133017 0.13395 -0.981751 0.134989 0.207506
14.6355 -12.607 -11.608 -2.34434 -0.620245 -3.5 -0.126575 -0.126691 -0.983833 0.474951
7.48575 -14.127 -3.1575 -2.08438 -0.959097 4.5 -0.330652 -0.49929 -0.800862 -0.999868
15.4607 -24.772 -15.3085 -1.0679 -0.245792 -2.13431 -0.651454 0.718903 -0.242457 -0.999913
11.7205 -11.4855 -10.6305 -0.0340431 0.120948 -3.42921 -0.501557 0.368702 -0.782624 -0.610701
15.895 -18.3638 -3.32975 -0.163154 0 -1.3 -0.949955 -0.166338 -0.264417 0.999848
14.275 -14.529 -15.837 -0.7393 0 0.527141 -0.762942 0.544533 0.348429 0.343691
15.6925 -12.1675 -11.983 -2.26905 -0.451178 -3.5 -0.54765 -0.415537 -0.726229 0.999906
4.994 -22.255 -10.4165 -3.25762 0 2.8 0.663391 -0.437478 0.607063 -0.574111
15.8535 -18.5173 -4.99625 -0.362737 0 -1.3 -0.99741 0.071918 -0.000855581 0.268881
9.94325 -12.1962 -9.02525 -0.584052 0 1.9 -0.78519 -0.0516636 -0.617096 -0.619651
8.29125 -21.8634 -8.66362 -2.17843 0 4.2 -0.183692 -0.971617 0.149055 -0.888348
10.1204 -13.6251 -8.62237 -0.698555 0 1.9 -0.82012 -0.465811 -0.332299 -0.554442
9.3415 -17.5215 -8.4715 -2.23086 0 4.5 -0.0844876 0.768579 0.634151 0.513492
12.3693 -15.3667 -18.3727 -0.358049 0 3.8 -0.892025 -0.449029 0.0516141 -0.861502
16.8612 -22.8522 -15.4198 -2.00596 0 -3.5 -0.951801 0.243202 0.18689 0.999917
15.2729 -22.7922 -10.2626 -0.812751 0 2.8 -0.935326 -0.326638 0.135917 0.330973
10.168 -19.52 -6.86975 -1.87948 0 -0.561442 -0.0557121 -0.183209 0.981494 -0.347753
7.0915 -14.6678 -2.24962 -1.71169 -0.36257 4.5 -0.650762 -0.713613 -0.259355 -0.999876
7.1655 -12.7914 -3.38363 -1.19509 -0.326293 4.01522 -0.633975 -0.0845756 -0.768715 -0.705943
5.43587 -21.9801 -15.4847 -5.25345 -0.945743 -3.5 0.411111 -0.402523 -0.817902 -0.248533
13.051 -18.5177 -19.3223 -0.0687198 0 3.8 -0.65658 0.0210536 0.753963 0.999938
16.2052 -26.0535 -6.721 -0.487461 0 -0.4 -0.669652 0.576963 0.467633 0.999886
17.0023 -24.828 -6.4885 -0.891452 0 -0.4 -0.934094 0.225747 0.276599 0.999895
11.2594 -15.1216 -6.78 -0.756392 0 3.04815 -0.794845 -0.546414 0.263918 0.240181
6.8045 -13.2295 -0.384 -0.840348 0 1.8 -0.879001 -0.330283 0.343905 -0.999903
5.993 -23.3005 -13.684 -3.91686 -0.0350327 2.20327 0.994232 -0.107247 0.000834265 -0.311168
13.0588 -16.7183 -19.3657 -0.0693663 0.031464 2.09142 -0.929647 -0.22598 0.291014 0.999919
11.4625 -11.334 -17.916 -0.877566 -0.177118 -3.5 -0.658544 -0.368035 0.656406 -0.999916
8.937 -7.0555 -6.6345 -0.538867 0 -3.36524 -0.571087 -0.0905122 -0.815885 -0.99994
8.2595 -19.3726 -12.9984 -3.1629 0 2.8 0.448837 -0.171968 -0.876911 -0.302339
14.5398 -19.8499 -15.1421 -1.61389 -0.189216 -3.5 -0.313999 -0.936333 -0.157117 0.327523
8.128 -8.783 -4.575 -1.5434 -0.00176283 -0.8 -0.855588 -0.436344 -0.27852 -0.516781
14.737 -16.8426 -3.1855 -0.228103 0.0577037 -1.24431 -0.827421 -0.431658 -0.35923 0.283875
15.376 -26.6238 -6.77525 -0.173937 0 -0.4 -0.687505 0.68145 0.250925 0.999919
2.5865 -18.3315 -9.9065 -3.04334 0 1.9 -0.767295 -0.101709 0.633178 -0.698739
12.9031 -18.3396 -17.0815 -1.10246 0 -0.60072 -0.815119 -0.131935 -0.564069 -0.379103
6.93175 -21.155 -9.31175 -2.54074 0 2.8 -0.596652 -0.801224 0.0452375 -0.839943
5.83413 -24.7432 -13.8381 -3.70418 -0.0520243 1.32236 0.818616 -0.431405 -0.379155 -0.999893
9.1075 -13.6565 -3.32525 -1.38902 -0.246228 -1.36469 0.298357 -0.6282 -0.718573 -0.541742
14.533 -18.8092 -1.32175 -0.320916 0 -3.28022 -0.716583 -0.456138 -0.52768 0.999875
4.003 -16.495 -8.7405 -4.39789 -0.55943 -2.95217 -0.468947 0.246005 0.848275 -0.815808
1.11263 -23.2239 -10.8409 -3.33173 0.0259127 4.24193 -0.73592 -0.673121 0.073007 -0.999867
9.28137 -11.976 -6.73775 -0.633746 0 0.838793 -0.989737 -0.0855973 -0.114426 -0.0210343
15.1651 -20.8288 -1.775 -0.437435 0 -1.3 -0.928579 -0.0632521 -0.365705 0.999942
16.369 -21.1338 -14.3822 -2.31774 0 -3.5 -0.726307 -0.561127 -0.397006 0.624224
15.584 -20.3216 -4.37063 -0.972779 0 -1.3 -0.958554 0.282232 0.0389887 0.611167
6.705 -16.0055 -8.4215 -3.20385 0 4.5 0.160708 0.411318 0.897213 -0.437843
15.8013 -18.1485 -6.67825 -1.04342 0 -1.3 -0.849121 -0.155234 0.504873 0.904782
15.6917 -13.9259 -13.312 -2.60793 -0.268517 -3.5 -0.595514 0.802719 0.0316956 0.847694
9.4505 -12.6735 -8.0465 -0.699367 0 4.44527 -0.942935 -0.186505 -0.275842 -0.803387
15.2714 -20.2574 -13.9176 -2.83753 -0.0747303 -3.5 -0.432056 -0.806691 -0.403209 0.999838
11.2804 -18.0161 -6.67697 -1.38602 0 -1.6 -0.274406 0.0885 0.957533 -0.357481
11.021 -7.806 -7.911 0.371577 0 -3.9 -0.248117 0.824871 -0.507962 -0.99989
3.36744 -17.7189 -9.10256 -3.31693 0 1.9 -0.637635 -0.0529984 0.768513 -0.663338
2.00487 -18.2309 -11.1883 -2.56068 0 -2.79178 -0.978169 0.0459118 0.202674 -0.999742
15.1964 -22.148 -5.56806 -0.847085 0 -1.3 -0.89557 -0.385288 -0.2225 -0.590237
0.74225 -21.5695 -10.4832 -3.54667 0 4.2 -0.96536 0.25725 0.0436207 -0.99989
13.167 -9.6955 -10.6186 0.0979902 0 -3.5 -0.629712 0.311012 -0.711853 -0.999901
15.2625 -20.868 -5.3145 -1.15816 0 -1.3 -0.969752 0.233846 -0.069976 -0.459272
8.62225 -17.057 -12.562 -2.96869 0 2.37284 0.610592 0.377113 -0.696393 -0.0637378
9.9105 -20.1151 -12.2756 -2.60132 0 2.8 0.234267 -0.362448 -0.902081 -0.330359
16.573 -21.131 -16.557 -0.962878 0 -3.5 -0.623968 -0.764066 -0.163914 0.999915
12.8078 -16.8243 -15.4923 -1.06795 0 3.8 -0.866298 0.423654 -0.264661 0.170632
6.42562 -18.119 -7.76613 -3.04672 0 3.71792 -0.581716 0.061896 0.811034 -0.239026
12.3371 -17.513 -14.5271 -1.2477 0 3.03987 -0.994679 0.0904651 0.0492834 -0.353686
12.6602 -16.3461 -14.5041 -1.10039 0 3.8 -0.9219 0.321669 -0.215939 -0.29144
3.39963 -23.4661 -15.2142 -4.06939 -0.122575 -0.83105 -0.148716 -0.296715 -0.943315 -0.385273
7.42856 -17.0405 -8.01987 -2.75773 0 4.5 -0.0484337 0.494104 0.868053 -0.25797
1.73162 -22.0684 -13.782 -3.2786 0 2.80866 -0.874812 -0.0181531 -0.484123 -0.694903
11.91 -21.0998 -9.715 -1.93022 0 2.8 -0.0453098 -0.997889 0.0465219 0.201117
15.2722 -18.8251 -2.50031 -0.366819 0 -1.3 -0.763489 -0.296772 -0.573594 0.0538722
13.7014 -19.3172 -16.6887 -1.07193 0 -3.5 -0.370111 -0.845785 -0.384272 -0.294698
6.23938 -17.2096 -14.2946 -2.8239 -0.372587 -0.8 0.327576 0.242102 -0.91328 0.160081
11.6096 -13.5609 -3.6785 -0.759715 0 -0.4 -0.202787 -0.392633 0.89706 -0.246318
11.8315 -16.2203 -6.50544 -0.81074 0 -0.416266 -0.668822 -0.0424173 0.742211 -0.107741
6.96231 -10.5149 -2.86794 -1.16828 0 1.54092 -0.707137 -0.0160593 -0.706894 -0.297298
10.7595 -12.4742 -2.3075 -0.884235 0 -0.4 0.706946 -0.67484 -0.211704 0.999914
7.02688 -18.8224 -13.9298 -3.0074 0 2.8 0.740855 -0.00249276 -0.671661 0.220105
9.791 -20.387 -7.4305 -1.9991 0 4.2 0.039204 -0.625209 0.779472 0.0296405
12.4867 -14.616 -10.6283 -0.541167 0 1.9 -0.724303 -0.21333 -0.655649 0.57126
14.5436 -20.8753 -7.64725 -0.8667 -0.178789 -0.772392 -0.658774 -0.542934 0.520806 -0.133251
9.52888 -9.11025 -8.68762 -0.949935 -0.640318 0.90684 -0.77917 0.134845 -0.612136 -0.999875
8.17981 -21.6989 -9.83625 -2.5338 0 2.8 -0.116467 -0.960177 -0.25396 -0.782879
4.16881 -17.9622 -15.3638 -3.1716 -0.758798 -0.8 -0.173791 0.438544 -0.881746 -0.428445
11.5741 -15.2316 -9.482 -0.899767 0 2.70833 -0.788486 0.0416087 -0.613643 0.284664
14.4064 -10.5336 -12.0139 -0.969342 0 -3.5 -0.568113 0.0927901 -0.817702 -0.999879
12.6731 -16.1469 -5.89787 -0.592783 0 -1.6 -0.451408 -0.565156 0.690528 0.202563
3.33562 -17.5894 -14.8496 -3.53393 0 -0.8 -0.56246 0.283404 -0.776738 -0.670727
8.09181 -16.2715 -13.3264 -3.43514 0 1.9 0.763719 0.346521 -0.544662 -0.794527
15.0213 -24.5858 -10.6944 -0.669236 0 2.8 -0.894142 0.387157 0.224988 0.153259
6.95213 -20.5986 -13.8139 -3.19799 0 2.8 0.919994 -0.359459 -0.156203 -0.258091
14.0999 -18.8615 -18.3993 -0.677143 0 -3.10303 -0.716579 -0.653457 -0.243942 -0.999873
1.27681 -22.4211 -9.24431 -3.61794 -0.0551628 2.35395 -0.567385 -0.199937 0.798811 -0.999889
12.4305 -8.7675 -9.62025 -0.178751 0 -3.71358 -0.403126 0.361524 -0.840708 0.999886
7.87962 -7.38925 -5.27138 -0.668607 0 -0.8 -0.890419 -0.21973 -0.398589 -0.999945
5.474 -15.696 -14.116 -4.35219 -0.249263 -3.5 0.0249803 0.543043 -0.839333 -0.530513
16.234 -22.6635 -6.288 -2.0729 -0.174838 2.8 -0.725171 -0.658981 -0.199677 0.786699
14.3036 -27.4333 -8.51038 -1.17577 0 1.8 -0.835838 0.548826 0.0128273 0.999899
14.2153 -14.3228 -2.79125 -0.0889222 0.0251025 -0.4 -0.6664 -0.189907 0.721004 0.999871
2.05106 -23.4923 -9.72519 -3.42754 0 4.5 -0.172743 -0.83117 0.528503 -0.999893
14.2954 -13.7446 -12.1637 -2.48046 -0.147982 -3.5 -0.266073 0.733405 -0.625557 0.19952
13.891 -16.1928 -3.99425 -0.221959 0.148556 -0.675775 -0.734285 -0.572775 0.364356 -0.222308
4.90956 -23.6046 -11.5169 -3.36447 0.0925471 4.5 0.639654 -0.364151 0.676932 -0.0893115
2.35413 -19.7927 -10.839 -3.22393 0 -2.97747 -0.901433 0.26339 0.343576 0.22032
9.09 -20.9526 -12.0981 -2.6451 0 2.8 0.190682 -0.772617 -0.60556 -0.735938
16.127 -23.9303 -15.5243 -1.82136 0 -3.5 -0.728634 0.679361 0.0869554 0.999901
6.90844 -14.2074 -12.4447 -4.28814 -0.018594 0.865062 0.363868 0.804034 -0.470244 -0.999795
15.9415 -22.613 -2.72975 -0.68616 0 -1.3 -0.909055 -0.343287 0.236165 0.999915
12.7105 -15.5302 -4.59694 0.333647 0 -0.990058 -0.500814 -0.720917 0.479024 -0.373604
12.993 -12.7635 -17.3085 -0.50304 0 -3.5 -0.564427 0.159892 0.80985 0.999878
1.64781 -23.2758 -13.0166 -3.31066 0 4.2 -0.920377 -0.228277 -0.317483 -0.258764
8.17975 -16.5315 -8.73738 -2.73732 0 4.5 0.377701 0.638254 0.670801 -0.164691
2.28069 -16.3771 -12.6808 -3.61617 0 -4.35729 -0.928199 0.363892 -0.0776432 -0.77067
13.2244 -14.7584 -12.8462 -1.24416 0 1.9 -0.863855 0.493813 -0.0995163 -0.10878
1.98794 -19.1993 -12.4366 -3.39608 0 -3.5 -0.998325 0.0484901 0.0315475 -0.136124
10.846 -10.5633 -9.42237 -0.315176 0.0780676 -0.999395 -0.521189 0.216007 -0.825653 0.0307561
13.6157 -17.0746 -2.01925 -0.0704079 0.192123 -0.545284 -0.845406 -0.186358 -0.500558 -0.83112
4.54812 -19.699 -16.2568 -3.23707 0 1.8 -0.0664875 0.161181 -0.984683 -0.999835
4.1165 -21.3935 -15.8946 -3.79878 0 0.459828 -0.24916 -0.189928 -0.949656 -0.524976
10.5939 -7.6595 -6.95638 -0.278611 0 -3.9 -0.396488 0.762856 -0.510732 0.999936
11.4255 -16.6453 -10.7253 -1.23082 0 1.9 -0.159458 0.799429 -0.579212 0.408825
2.57344 -15.8764 -11.0866 -3.69623 -0.326701 -3.82737 -0.823806 0.540522 0.17082 -0.822139
10.5222 -14.2601 -7.49631 -0.785811 0 4.5 -0.745875 -0.652971 -0.131527 0.19154
3.40444 -22.863 -9.527 -3.38304 -0.136432 2.66221 0.335694 -0.571516 0.748785 -0.781473
16.431 -12.3635 -13.238 -2.09506 -0.274175 -3.5 -0.982438 0.0541111 -0.17857 0.999915
11.6291 -19.5521 -12.3505 -1.70281 0 2.8 -0.338199 -0.0707532 -0.938411 -0.108749
15.4955 -11.4055 -12.8457 -1.99223 0 -3.5 -0.400327 -0.560222 -0.725182 -0.999919
9.09419 -11.6834 -4.83406 -0.459324 0.0497019 2.99823 -0.962391 -0.124767 -0.241323 0.158606
13.4522 -19.4024 -7.40287 -1.54901 -0.400169 -1.3 0.123126 -0.356075 0.92631 0.0995422
3.9905 -21.6316 -9.44862 -3.4048 0 2.69625 0.42154 -0.119563 0.898893 -0.342272
8.87225 -10.3708 -4.15019 -0.80847 0 -0.4 -0.806144 -0.130876 -0.577065 0.58615
11.6059 -20.6597 -7.36794 -1.58271 0 1.10655 0.123189 -0.679007 0.723722 -0.827122
4.28587 -13.9463 -11.7683 -3.53691 0.712863 -3.55556 -0.459369 0.874201 -0.157333 -0.909423
9.14775 -14.209 -0.819375 -1.31954 -0.00872318 1.1464 0.699046 -0.713351 0.0496512 0.999906
5.69325 -18.4351 -15.5594 -2.84389 -0.692835 -0.8 0.445318 0.442539 -0.778365 -0.71177
5.17675 -24.1003 -14.6897 -4.80818 -0.393352 -3.5 0.503257 -0.344402 -0.79254 -0.313904
13.3849 -20.6606 -8.25138 -1.14331 0 -1.3 -0.064548 -0.877721 0.474804 0.117725
15.5232 -20.102 -6.1715 -1.05559 0 -1.3 -0.939635 0.225494 0.257367 0.357879
1.71106 -20.6957 -13.1342 -3.66404 0.245621 -2.58418 -0.952712 0.236114 -0.191285 -0.1593
16.0234 -24.7486 -8.2475 -0.506353 -0.0369323 2.8 -0.860087 0.275065 0.429639 0.195988
2.22944 -17.7473 -13.8205 -3.56233 0 -2.69014 -0.897858 0.208645 -0.38771 -0.688741
4.05 -15.061 -9.7025 -5.95574 -0.170695 -3.5 -0.539081 0.558179 0.630736 -0.535861
3.05403 -24.3795 -11.6883 -2.85208 0.32846 4.5 -0.185682 -0.690718 0.698878 -0.124634
12.5014 -15.9479 -10.8194 -0.668033 0 1.9 -0.737697 0.410975 -0.535633 0.682768
2.14112 -25.0514 -13.1526 -3.29324 0 4.30046 -0.797601 -0.595332 0.0970214 -0.999863
15.4999 -23.5776 -12.1213 -0.966487 -0.0435774 2.37495 -0.86107 0.316703 -0.397816 0.194379
15.7211 -22.6241 -8.55281 -0.851404 -0.264561 2.8 -0.867685 -0.405199 0.287988 0.342792
12.8674 -18.7005 -13.4216 -0.982688 0 2.8 -0.950058 -0.204205 -0.235985 0.315145
5.8015 -24.59 -12.6163 -3.7915 -0.298585 3.94991 0.770495 -0.477013 0.422842 -0.99985
9.32306 -13.7409 -5.82888 -0.639277 0 4.5 -0.901168 -0.423063 -0.0944121 -0.999837
14.4173 -24.6184 -13.1582 -0.948196 0 -2.79134 -0.819217 0.538117 -0.198276 -0.566
14.635 -26.6868 -13.3249 -0.626372 0 -3.2 -0.930831 -0.261244 -0.255547 0.999928
12.8475 -13.6908 -11.416 -1.25386 -0.0516383 0.942763 -0.620538 0.0846369 -0.779596 -0.138148
3.07719 -25.3691 -14.5653 -3.44734 0 1.8 -0.273158 -0.689261 -0.671047 -0.999863
12.0492 -19.1998 -6.66116 -1.66807 0 -1.50919 0.130134 -0.270713 0.953824 -0.785709
9.59203 -21.6831 -8.85291 -1.85674 0 4.11849 0.234261 -0.953589 0.189181 -0.571191
3.401 -15.7835 -13.8511 -3.38494 0 -1.69659 -0.528607 0.636051 -0.562151 -0.999762
12.3689 -21.4106 -11.2295 -2.03425 0 2.8 -0.359095 -0.914875 -0.18454 -0.665804
5.791 -13.7334 -11.9676 -4.10216 0 1.8 -0.0267692 0.997364 -0.0674378 -0.999787
10.4554 -14.7068 -5.30491 -0.783511 0 -0.780871 -0.501528 -0.835977 0.222737 -0.572271
7.88637 -14.899 -10.5631 -3.15952 0 2.73767 0.695914 0.701883 0.151868 -0.479155
14.9847 -21.5798 -4.33362 -1.04176 0 -1.3 -0.996431 0.0162459 0.082838 -0.732455
1.86206 -20.6195 -9.83663 -3.38359 0 1.21459 -0.559856 0.646222 0.518611 -0.73581
14.2609 -14.2119 -14.2169 -1.27145 0 -3.5 -0.425523 0.886713 -0.180747 -0.221869
10.3307 -16.281 -9.76369 -1.88944 0 4.5 -0.359739 0.9307 0.0662197 0.0647582
12.8731 -18.192 -6.66587 -1.92579 0 -1.3 0.205868 -0.304655 0.929948 -0.309221
4.7195 -17.7747 -8.35709 -3.49769 0 1.9 -0.319565 -0.127851 0.9389 -0.465622
6.6405 -19.6774 -15.3659 -2.48398 0.370731 0.59875 0.76893 0.099709 -0.631509 -0.999827
9.64581 -8.15122 -7.87413 -0.263559 0 -3.9 -0.573656 0.736449 -0.358554 -0.999873
10.467 -17.4426 -12.0512 -2.12817 0 2.50852 0.149651 0.466963 -0.871522 -0.30783
2.522 -21.857 -14.698 -3.11939 0 -0.4 -0.651187 -0.0691356 -0.755762 -0.306418
8.587 -19.1336 -6.58775 -2.12828 0 4.48921 0.0399563 0.084838 0.995593 -0.68785
13.9699 -21.6895 -10.3322 -1.49416 0 2.8 -0.391076 -0.907866 0.151124 0.111521
7.86837 -21.1038 -7.24925 -2.10813 0 4.2 -0.158898 -0.737532 0.656352 -0.999846
6.62756 -20.2798 -7.81922 -3.20859 0 1.9 -0.82659 -0.371679 0.422614 -0.58864
7.62253 -17.6255 -13.7268 -2.86573 0 2.8 0.601761 -0.0469909 -0.797293 -0.537776
5.81303 -21.6807 -12.0024 -3.40417 0 2.8 0.772812 -0.555624 0.306666 0.25401
3.26288 -25.6439 -12.6706 -3.42321 0 4.5 -0.136899 -0.906098 0.400306 -0.999824
7.45947 -20.9221 -11.2138 -2.75991 0 2.8 0.0125168 -0.97826 -0.207004 0.104373
2.9445 -20.0823 -15.0989 -2.55984 0 -0.25119 -0.701932 0.0965233 -0.705673 -0.578848
14.6559 -22.0296 -12.3597 -1.55497 -0.083264 2.14222 -0.549035 -0.654161 -0.520224 -0.0870651
6.505 -21.001 -12.9165 -2.99471 0 2.8 0.682467 -0.729958 -0.0374158 0.515689
14.3975 -27.6305 -10.697 -0.97254 -0.249473 1.8 -0.993823 -0.0663191 -0.0889817 -0.999907
3 369 372 367
3 369 180 372
3 166 367 372
3 63 369 367
3 295 180 369
3 372 180 281
3 166 216 367
3 166 372 281
3 369 63 227
3 63 367 159
3 295 220 180
3 369 123 295
3 281 180 268
3 216 166 326
3 367 216 293
3 281 44 166
3 227 63 10
3 227 273 369
3 367 198 159
3 10 63 159
3 295 251 220
3 268 180 220
3 123 369 100
3 295 123 251
3 268 358 281
3 326 166 111
3 228 216 326
3 339 293 216
3 198 367 293
3 358 44 281
3 166 44 210
3 365 227 10
3 227 201 273
3 273 100 369
3 198 320 159
3 10 159 53
3 220 251 16
3 220 366 268
3 123 100 171
3 181 251 123
3 325 358 268
3 166 210 111
3 326 111 257
3 228 339 216
3 326 179 228
3 339 185 293
3 25 198 293
3 101 44 358
3 101 210 44
3 227 365 364
3 365 10 53
3 227 364 201
3 346 273 201
3 346 100 273
3 314 320 198
3 146 159 320
3 53 159 139
3 251 107 16
3 16 150 220
3 366 220 150
3 263 268 366
3 346 171 100
3 123 171 37
3 181 316 251
3 123 37 181
3 358 325 308
3 325 268 263
3 165 111 210
3 165 257 111
3 257 344 326
3 339 228 29
3 326 344 179
3 179 29 228
3 368 185 339
3 333 293 185
3 314 198 25
3 25 293 333
3 308 101 358
3 101 309 210
3 364 365 18
3 53 254 365
3 346 201 364
3 314 95 320
3 146 139 159
3 320 95 146
3 53 139 357
3 107 251 316
3 16 107 150
3 366 150 250
3 169 263 366
3 78 171 346
3 37 171 260
3 115 316 181
3 37 348 181
3 308 325 274
3 263 274 325
3 309 165 210
3 257 165 361
3 164 344 257
3 339 29 368
3 118 179 344
3 179 118 29
3 185 368 333
3 25 144 314
3 144 25 333
3 309 101 308
3 365 51 18
3 364 18 362
3 254 53 357
3 51 365 254
3 364 269 346
3 283 95 314
3 93 139 146
3 146 95 353
3 357 139 93
3 107 316 360
3 150 107 250
3 250 279 366
3 263 169 286
3 169 366 279
3 27 171 78
3 78 346 269
3 171 27 260
3 348 37 260
3 115 183 316
3 115 181 348
3 274 370 308
3 274 263 106
3 309 361 165
3 257 361 164
3 164 335 344
3 29 118 368
3 118 344 368
3 333 368 335
3 144 290 314
3 104 144 333
3 370 309 308
3 51 362 18
3 364 362 269
3 254 357 258
3 254 258 51
3 353 95 283
3 290 283 314
3 225 93 146
3 353 294 146
3 357 93 244
3 360 316 47
3 250 107 360
3 19 279 250
3 169 160 286
3 263 286 106
3 279 160 169
3 27 78 322
3 269 322 78
3 327 260 27
3 348 260 363
3 115 105 183
3 316 183 338
3 105 115 348
3 278 370 274
3 274 106 278
3 309 370 361
3 301 164 361
3 335 164 301
3 368 344 335
3 335 104 333
3 290 144 232
3 232 144 104
3 162 362 51
3 362 207 269
3 258 357 237
3 162 51 258
3 353 283 247
3 232 283 290
3 244 93 225
3 146 294 225
3 294 353 33
3 231 357 244
3 338 47 316
3 152 360 47
3 250 360 1
3 36 279 19
3 250 134 19
3 286 160 297
3 347 106 286
3 279 36 160
3 327 27 322
3 269 207 322
3 260 327 363
3 348 363 105
3 138 183 105
3 109 338 183
3 278 121 370
3 278 106 347
3 259 361 370
3 301 361 259
3 301 104 335
3 104 72 232
3 162 156 362
3 207 362 156
3 68 237 357
3 302 258 237
3 258 302 162
3 283 232 247
3 33 353 247
3 244 225 55
3 225 294 245
3 294 33 329
3 68 357 231
3 98 231 244
3 338 154 47
3 152 311 360
3 152 47 154
3 311 1 360
3 1 134 250
3 351 36 19
3 351 19 134
3 160 36 297
3 286 297 131
3 286 131 347
3 322 319 327
3 345 322 207
3 363 327 151
3 105 363 371
3 241 183 138
3 105 371 138
3 130 338 109
3 109 183 241
3 331 121 278
3 370 121 329
3 347 331 278
3 329 259 370
3 259 75 301
3 72 104 301
3 232 72 247
3 162 203 156
3 156 242 207
3 59 237 68
3 302 237 182
3 203 162 302
3 247 75 33
3 55 225 245
3 55 98 244
3 245 294 305
3 329 33 75
3 294 329 305
3 332 68 231
3 231 98 332
3 255 154 338
3 334 311 152
3 154 66 152
3 355 1 311
3 1 355 134
3 351 297 36
3 116 351 134
3 297 349 131
3 347 131 189
3 319 322 345
3 327 319 271
3 242 345 207
3 271 151 327
3 151 206 363
3 371 363 206
3 241 138 371
3 130 255 338
3 109 127 130
3 221 109 241
3 121 331 305
3 329 121 305
3 347 303 331
3 259 329 75
3 301 75 72
3 72 75 247
3 156 203 31
3 31 242 156
3 59 182 237
3 59 68 332
3 351 302 182
3 302 116 203
3 303 55 245
3 55 312 98
3 245 305 92
3 312 332 98
3 154 255 133
3 334 275 311
3 66 334 152
3 66 154 133
3 275 355 311
3 134 355 116
3 2 297 351
3 351 116 302
3 2 349 297
3 131 349 323
3 131 323 189
3 312 347 189
3 345 356 319
3 89 271 319
3 345 242 356
3 337 151 271
3 151 337 206
3 206 336 371
3 241 371 235
3 130 23 255
3 109 221 127
3 127 41 130
3 241 17 221
3 92 305 331
3 312 303 347
3 331 303 92
3 91 31 203
3 31 85 242
3 59 186 182
3 332 148 59
3 186 351 182
3 355 203 116
3 312 55 303
3 245 92 303
3 189 332 312
3 133 255 256
3 334 270 275
3 334 66 4
3 304 66 133
3 126 355 275
3 351 186 2
3 186 349 2
3 323 349 143
3 143 189 323
3 46 319 356
3 141 271 89
3 319 46 89
3 356 242 119
3 271 141 337
3 206 337 145
3 206 280 336
3 74 371 336
3 235 371 74
3 170 241 235
3 130 41 23
3 255 23 253
3 221 262 127
3 262 41 127
3 17 241 170
3 221 17 43
3 31 91 85
3 203 355 91
3 119 242 85
3 59 148 186
3 143 148 332
3 332 189 143
3 253 256 255
3 133 256 304
3 334 4 270
3 270 135 275
3 4 66 304
3 126 157 355
3 275 202 126
3 186 148 349
3 143 349 148
3 46 356 175
3 141 89 328
3 178 89 46
3 356 119 277
3 141 287 337
3 330 145 337
3 206 145 280
3 280 341 336
3 172 74 336
3 83 235 74
3 83 170 235
3 226 23 41
3 253 23 226
3 262 221 43
3 226 41 262
3 170 252 17
3 43 17 252
3 157 85 91
3 157 91 355
3 119 85 265
3 142 256 253
3 304 256 34
3 270 4 343
3 177 135 270
3 275 135 112
3 4 304 343
3 157 126 214
3 275 112 202
3 126 202 313
3 356 277 175
3 46 175 8
3 328 89 178
3 249 141 328
3 46 238 178
3 119 265 277
3 246 287 141
3 337 287 153
3 38 145 330
3 330 337 153
3 38 280 145
3 280 158 341
3 336 341 21
3 83 74 172
3 21 172 336
3 83 205 170
3 226 42 253
3 262 43 282
3 262 282 226
3 43 252 48
3 265 85 157
3 256 142 34
3 184 142 253
3 354 304 34
3 270 343 177
3 177 112 135
3 343 304 291
3 126 313 214
3 157 214 265
3 112 200 202
3 136 313 202
3 175 277 24
3 79 8 175
3 46 8 238
3 178 238 328
3 246 141 249
3 249 328 236
3 265 214 277
3 246 73 287
3 287 35 153
3 38 330 67
3 330 153 213
3 167 280 38
3 280 167 158
3 158 125 341
3 341 193 21
3 172 205 83
3 172 21 296
3 226 282 42
3 253 42 77
3 282 43 48
3 354 34 142
3 142 184 196
3 184 253 77
3 354 291 304
3 177 343 15
3 177 82 112
3 343 291 99
3 313 350 214
3 200 112 82
3 240 202 200
3 340 313 136
3 240 136 202
3 24 277 299
3 175 24 79
3 79 238 8
3 328 238 199
3 249 352 246
3 328 199 236
3 352 249 236
3 277 214 7
3 352 73 246
3 35 287 73
3 213 153 35
3 67 330 0
3 167 38 67
3 330 213 212
3 158 167 32
3 158 32 125
3 125 342 341
3 341 65 193
3 21 193 296
3 296 205 172
3 217 42 282
3 149 77 42
3 282 48 13
3 354 142 196
3 196 184 120
3 124 184 77
3 239 291 354
3 15 343 99
3 194 177 15
3 82 177 194
3 191 99 291
3 350 313 340
3 214 350 7
3 82 306 200
3 200 168 240
3 233 340 136
3 240 233 136
3 299 277 7
3 299 292 24
3 79 24 140
3 132 238 79
3 132 199 238
3 195 236 199
3 52 352 236
3 163 73 352
3 212 0 330
3 288 67 0
3 167 67 76
3 69 32 167
3 125 32 69
3 125 69 342
3 342 65 341
3 42 217 149
3 217 282 211
3 124 77 149
3 354 196 14
3 124 120 184
3 120 87 196
3 56 291 239
3 239 354 14
3 64 15 99
3 64 194 15
3 306 82 194
3 317 99 191
3 56 191 291
3 147 350 340
3 299 7 350
3 200 306 168
3 30 240 168
3 233 28 340
3 30 233 240
3 20 292 299
3 140 24 292
3 79 140 132
3 199 132 12
3 195 52 236
3 12 195 199
3 6 352 52
3 163 96 73
3 298 163 352
3 212 224 0
3 76 67 288
3 0 224 288
3 167 76 373
3 167 373 69
3 217 61 149
3 204 124 149
3 86 14 196
3 110 120 124
3 300 87 120
3 196 87 86
3 315 56 239
3 128 239 14
3 276 64 99
3 64 40 194
3 306 194 40
3 276 99 317
3 317 191 197
3 197 191 56
3 147 90 350
3 318 147 340
3 350 102 299
3 306 272 168
3 30 168 272
3 233 94 28
3 318 340 28
3 233 30 94
3 289 292 20
3 102 20 299
3 292 223 140
3 132 140 12
3 52 195 261
3 223 195 12
3 6 298 352
3 52 234 6
3 163 298 96
3 224 81 288
3 149 61 204
3 110 124 204
3 128 14 86
3 110 300 120
3 315 197 56
3 128 315 239
3 276 248 64
3 64 248 40
3 40 284 306
3 315 317 197
3 147 190 90
3 350 90 102
3 190 147 318
3 39 272 306
3 272 114 30
3 28 94 318
3 30 114 94
3 292 289 188
3 289 20 264
3 264 20 102
3 292 188 223
3 223 12 140
3 223 261 195
3 261 122 52
3 298 6 234
3 234 52 122
3 110 204 61
3 110 84 300
3 284 40 248
3 39 306 284
3 90 190 264
3 102 90 264
3 318 129 190
3 359 272 39
3 272 359 114
3 318 94 49
3 114 137 94
3 264 62 289
3 188 187 223
3 223 307 261
3 230 122 261
3 61 58 110
3 84 110 3
3 284 117 39
3 264 190 103
3 54 129 318
3 229 190 129
3 359 39 243
3 359 137 114
3 49 94 222
3 321 318 49
3 137 26 94
3 264 108 62
3 223 187 307
3 261 307 230
3 58 3 110
3 3 218 84
3 243 39 117
3 267 103 190
3 264 103 108
3 54 209 129
3 54 318 321
3 190 229 176
3 129 192 229
3 310 359 243
3 137 359 310
3 94 26 222
3 49 222 321
3 26 137 219
3 80 307 187
3 11 230 307
3 3 60 218
3 190 176 267
3 209 54 266
3 209 192 129
3 22 54 321
3 229 161 176
3 161 229 192
3 219 137 310
3 26 285 222
3 222 88 321
3 285 26 219
3 80 11 307
3 218 60 9
3 266 54 22
3 209 266 173
3 174 192 209
3 70 22 321
3 161 324 176
3 192 208 161
3 285 88 222
3 70 321 88
3 22 70 266
3 97 173 266
3 174 209 173
3 192 174 208
3 161 45 324
3 71 161 208
3 57 70 88
3 57 266 70
3 113 173 97
3 97 266 5
3 174 173 113
3 208 174 215
3 71 45 161
3 324 45 155
3 208 215 71
3 57 5 266
3 50 113 97
3 113 215 174
3 155 45 71
3 71 215 155
3 215 113 50
